<svg width="25" height="24" viewBox="0 0 25 24" fill="none" xmlns="http://www.w3.org/2000/svg">
<path d="M13 11.5312C13.6094 11.5312 14.125 12.0469 14.125 12.6562C14.1719 17.3438 13.375 20.9531 12.7188 23.2031C12.5781 23.7188 12.1562 24 11.6406 24C10.6562 24 10.4219 23.0625 10.5625 22.5938C11.4531 19.3125 11.9219 16.0781 11.875 12.6562C11.875 12.0469 12.3438 11.5312 13 11.5312ZM12.9531 7.73438C15.625 7.78125 17.8281 9.9375 17.875 12.5156C17.875 14.9062 17.7344 17.3438 17.3125 19.6875C17.3125 19.875 16.9844 20.7656 16.0469 20.5781C15.4375 20.4844 15.0156 19.9219 15.1094 19.3125C15.4844 17.1094 15.625 14.8125 15.625 12.5625C15.5781 11.1562 14.3594 9.98438 12.9062 9.98438C11.3125 9.98438 10.3281 11.2031 10.375 12.4219C10.375 14.8594 10.1875 17.25 9.67188 19.5938C9.57812 20.2031 8.96875 20.5781 8.35938 20.4844C7.75 20.3438 7.375 19.7344 7.46875 19.125C7.9375 16.9688 8.125 14.7188 8.125 12.4688C8.07812 9.9375 10.0938 7.73438 12.9531 7.73438ZM7.75 6.79688C8.21875 7.17188 8.3125 7.875 7.9375 8.39062C7.04688 9.46875 6.57812 10.7812 6.625 12.1875C6.625 14.0625 6.48438 15.9844 6.15625 17.8594C6.10938 18.0938 5.78125 18.9375 4.84375 18.75C4.23438 18.6562 3.8125 18.0938 3.90625 17.4375C4.23438 15.75 4.375 13.9688 4.375 12.1875C4.32812 10.3125 4.98438 8.4375 6.15625 6.9375C6.57812 6.46875 7.28125 6.42188 7.75 6.79688ZM12.9062 3.89062C17.6406 3.9375 21.5312 7.78125 21.625 12.375C21.625 12.6094 21.625 12.7969 21.625 13.0312C21.625 14.7188 21.5312 16.3594 21.3438 18C21.2969 18.4688 20.875 19.0781 20.0781 18.9844C19.4688 18.9375 19.0469 18.375 19.0938 17.7656C19.2812 15.9844 19.375 14.2031 19.375 12.4219C19.3281 9 16.375 6.1875 12.8594 6.14062C12.2969 6.14062 11.7812 6.1875 11.2656 6.28125C10.6562 6.42188 10.0469 6.04688 9.90625 5.4375C9.76562 4.875 10.1406 4.26562 10.75 4.125C11.4531 3.9375 12.1562 3.84375 12.9062 3.89062ZM24.7188 9.5625C25 10.875 25 11.9062 24.9531 12.9375C24.9531 13.5938 24.4844 14.0625 23.8281 14.0625C23.2188 14.0625 22.7031 13.5469 22.7031 12.9375C22.75 11.8125 22.7031 11.0625 22.5156 10.0312C22.375 9.42188 22.75 8.85938 23.3594 8.71875C23.9688 8.57812 24.5781 8.95312 24.7188 9.5625ZM22.7969 5.29688C23.1719 5.8125 23.0312 6.51562 22.5625 6.89062C22.0469 7.21875 21.3438 7.125 20.9688 6.60938C19.0938 3.9375 16.0469 2.34375 12.8125 2.29688C10.1406 2.25 7.70312 3.23438 5.875 5.01562C4.14062 6.79688 3.20312 9.09375 3.25 11.5312L3.20312 12.6562C3.20312 13.2656 2.6875 13.7344 2.125 13.7344C2.07812 13.7344 2.07812 13.7344 2.07812 13.7344C1.46875 13.7344 0.953125 13.2188 1 12.6094V11.5781C0.953125 8.53125 2.125 5.625 4.28125 3.42188C6.53125 1.17188 9.57812 0 12.8125 0.046875C16.7969 0.09375 20.5469 2.0625 22.7969 5.29688Z" fill="#024E82"/>
</svg>
