<svg width="24" height="24" viewBox="0 0 24 24" fill="none" xmlns="http://www.w3.org/2000/svg">
<path d="M9.9375 10.5469H0.5625C0.234375 10.5469 0 10.2656 0 9.98438V0.5625C0 0.28125 0.234375 0 0.5625 0H2.8125C3.09375 0 3.375 0.28125 3.375 0.5625V4.26562C5.48438 1.875 8.625 0.375 12.0938 0.421875C18.5156 0.46875 23.625 5.625 23.625 12.0469C23.625 18.4688 18.4219 23.625 12 23.625C9 23.625 6.23438 22.5 4.17188 20.625C3.9375 20.4375 3.9375 20.0625 4.17188 19.8281L5.76562 18.2344C5.95312 18 6.28125 18 6.51562 18.1875C7.96875 19.5 9.89062 20.25 12 20.25C16.5469 20.25 20.25 16.5938 20.25 12C20.25 7.45312 16.5469 3.75 12 3.75C9.23438 3.75 6.84375 5.10938 5.34375 7.17188H9.9375C10.2188 7.17188 10.5 7.40625 10.5 7.73438V9.98438C10.5 10.2656 10.2188 10.5469 9.9375 10.5469Z" fill="#024E82"/>
</svg>
