<svg width="24" height="24" viewBox="0 0 24 24" fill="none" xmlns="http://www.w3.org/2000/svg">
<path d="M12 0.375C18.375 0.375 23.625 5.625 23.625 12C23.625 18.4219 18.375 23.625 12 23.625C5.57812 23.625 0.375 18.4219 0.375 12C0.375 5.625 5.57812 0.375 12 0.375ZM20.1094 6C19.5 5.20312 18.7969 4.5 18 3.89062L15.0469 6.84375C15.8906 7.35938 16.6406 8.10938 17.1562 8.95312L20.1094 6ZM12 16.5C14.4844 16.5 16.5 14.5312 16.5 12C16.5 9.51562 14.4844 7.5 12 7.5C9.46875 7.5 7.5 9.51562 7.5 12C7.5 14.5312 9.46875 16.5 12 16.5ZM5.95312 3.89062C5.15625 4.5 4.45312 5.20312 3.84375 6L6.79688 8.95312C7.3125 8.10938 8.0625 7.35938 8.90625 6.84375L5.95312 3.89062ZM3.84375 18.0469C4.45312 18.8438 5.15625 19.5469 5.95312 20.1562L8.90625 17.2031C8.0625 16.6875 7.3125 15.9375 6.79688 15.0938L3.84375 18.0469ZM18 20.1562C18.7969 19.5469 19.5 18.8438 20.1094 18.0469L17.1562 15.0938C16.6406 15.9375 15.8906 16.6875 15.0469 17.2031L18 20.1562Z" fill="#024E82"/>
</svg>
